<?xml version="1.0" encoding="UTF-8" standalone="no"?>
<svg
   xmlns:dc="http://purl.org/dc/elements/1.1/"
   xmlns:cc="http://creativecommons.org/ns#"
   xmlns:rdf="http://www.w3.org/1999/02/22-rdf-syntax-ns#"
   xmlns:svg="http://www.w3.org/2000/svg"
   xmlns="http://www.w3.org/2000/svg"
   xmlns:sodipodi="http://sodipodi.sourceforge.net/DTD/sodipodi-0.dtd"
   xmlns:inkscape="http://www.inkscape.org/namespaces/inkscape"
   width="118.25462mm"
   height="116.70788mm"
   viewBox="0 0 118.25462 116.70788"
   version="1.1"
   id="svg919"
   inkscape:version="1.0.2 (e86c8708, 2021-01-15)"
   sodipodi:docname="apmlogo.svg">
  <defs
     id="defs913" />
  <sodipodi:namedview
     id="base"
     pagecolor="#ffffff"
     bordercolor="#666666"
     borderopacity="1.0"
     inkscape:pageopacity="0.0"
     inkscape:pageshadow="2"
     inkscape:zoom="0.56441845"
     inkscape:cx="-55.082824"
     inkscape:cy="368.17033"
     inkscape:document-units="mm"
     inkscape:current-layer="layer1"
     inkscape:document-rotation="0"
     showgrid="false"
     inkscape:window-width="1252"
     inkscape:window-height="872"
     inkscape:window-x="23"
     inkscape:window-y="0"
     inkscape:window-maximized="0"
     fit-margin-top="0"
     fit-margin-left="0"
     fit-margin-right="0"
     fit-margin-bottom="0" />
  <metadata
     id="metadata916">
    <rdf:RDF>
      <cc:Work
         rdf:about="">
        <dc:format>image/svg+xml</dc:format>
        <dc:type
           rdf:resource="http://purl.org/dc/dcmitype/StillImage" />
        <dc:title></dc:title>
      </cc:Work>
    </rdf:RDF>
  </metadata>
  <g
     inkscape:label="Layer 1"
     inkscape:groupmode="layer"
     id="layer1"
     style="display:inline;opacity:1"
     transform="translate(-1.1432301,-0.9859632)" />
  <g
     inkscape:groupmode="layer"
     id="layer3"
     inkscape:label="Layer 2"
     style="display:inline;mix-blend-mode:normal"
     transform="translate(-1.1432301,-0.9859632)" />
  <g
     inkscape:groupmode="layer"
     id="layer4"
     inkscape:label="Layer 3"
     style="display:inline"
     transform="translate(-1.1432301,-0.9859632)">
    <g
       id="g923"
       transform="translate(-68.9431,-153.27528)">
      <g
         id="g1649"
         style="display:inline;mix-blend-mode:normal;fill:#483737">
        <path
           style="display:inline;fill:#483737;fill-opacity:1;stroke:none;stroke-width:0.264583px;stroke-linecap:butt;stroke-linejoin:miter;stroke-opacity:1"
           d="m 112.44139,225.98737 c 0,0 79.08842,-5.08008 72.90628,-67.4264 -16.43691,28.29774 -47.58273,57.00407 -72.90628,67.4264 z"
           id="path1569"
           sodipodi:nodetypes="ccc" />
        <ellipse
           style="display:inline;fill:#483737;stroke:none;stroke-width:0.256183"
           id="path1003"
           cx="124.77998"
           cy="212.01141"
           rx="52.319626"
           ry="56.07962"
           transform="matrix(0.99998871,0.00475196,0,1,0,0)" />
      </g>
      <g
         id="g1001"
         inkscape:label="APM Logo"
         transform="matrix(0.11605843,0,0,-0.12457557,13.15526,337.191)"
         style="fill:#ffffff">
        <path
           d="M 815.013,850.81 C 1093.45,819.99 1375.79,1015.855 1375.79,1015.855 1199.41,620.55 815.013,850.81 815.013,850.81 Z M 793.073,824.9 C 946.178,715.61 1175.83,737.92 1175.83,737.92 942.946,564 793.073,824.9 793.073,824.9 Z m -21.55,-13.21 C 840.022,692.25 999.618,636.99 999.618,636.99 791.592,592.37 771.523,811.69 771.523,811.69 Z M 752.388,778.04 C 760.715,695.9 843.73,623.53 843.73,623.53 702.25,655.62 752.388,778.04 752.388,778.04 Z M 738.872,676.69 c -1.092,1.76 -2.415,3.96 -3.945,6.56 -0.73,1.31 -1.515,2.73 -2.353,4.25 -0.851,1.51 -1.631,3.17 -2.525,4.9 -3.436,6.98 -7.232,15.73 -9.963,26.36 -1.359,5.31 -2.516,11.08 -3.105,17.26 -0.595,6.17 -0.694,12.75 -0.098,19.58 1.11,13.7 5.357,28.28 12.196,42.45 6.871,14.17 16.213,27.92 26.859,41.09 10.632,13.21 22.552,25.9 34.734,38.49 12.182,12.58 24.686,25.04 36.461,37.81 5.883,6.38 11.586,12.84 16.9,19.42 2.66,3.26 5.249,6.63 7.644,9.91 l 1.751,2.43 1.86,2.68 0.932,1.35 c 0.061,0.08 -0.101,-0.12 0.013,0.04 l 0.099,0.16 0.197,0.31 0.395,0.63 1.576,2.5 c 4.147,6.7 7.607,13.64 10.316,20.73 2.656,7.11 4.555,14.35 5.783,21.6 1.22,7.242 1.806,14.481 1.786,21.623 -0.043,7.146 -0.614,14.174 -1.545,21.01 -0.385,2.756 -0.85,5.471 -1.352,8.159 -0.132,-8.221 -1.051,-16.485 -2.847,-24.73 C 856.014,956.14 793.383,908.97 737.722,875.99 c 0,0 0.379,86.37 -31.034,157.244 -1.465,2.633 -3.031,5.225 -4.759,7.75 0.313,0.162 0.62,0.319 0.938,0.481 1.061,0.557 2.076,1.234 3.129,1.854 2.129,1.202 4.122,2.688 6.129,4.129 0.498,0.366 1.012,0.708 1.495,1.092 l 1.413,1.195 c 0.936,0.793 1.868,1.583 2.793,2.368 0.955,0.744 1.737,1.676 2.593,2.493 0.833,0.839 1.657,1.668 2.467,2.484 0.844,0.78 1.491,1.723 2.219,2.55 0.706,0.847 1.395,1.677 2.066,2.484 0.334,0.403 0.663,0.8 0.989,1.192 0.31,0.402 0.579,0.828 0.864,1.23 0.558,0.812 1.098,1.596 1.614,2.349 1.004,1.523 2.052,2.825 2.717,4.156 0.723,1.289 1.352,2.412 1.871,3.337 1.032,1.845 1.622,2.899 1.622,2.899 0,0 -0.688,-0.995 -1.89,-2.734 -0.6,-0.867 -1.328,-1.919 -2.163,-3.126 -0.774,-1.246 -1.941,-2.444 -3.067,-3.845 -0.576,-0.69 -1.177,-1.408 -1.799,-2.151 -0.315,-0.367 -0.615,-0.757 -0.956,-1.122 -0.354,-0.353 -0.715,-0.711 -1.079,-1.074 -0.729,-0.724 -1.477,-1.468 -2.24,-2.228 -0.785,-0.737 -1.489,-1.587 -2.383,-2.266 -0.858,-0.714 -1.729,-1.439 -2.612,-2.174 -0.901,-0.709 -1.724,-1.529 -2.715,-2.158 -0.956,-0.666 -1.92,-1.338 -2.889,-2.013 l -1.449,-1.01 c -0.493,-0.322 -1.017,-0.601 -1.524,-0.904 -2.04,-1.188 -4.046,-2.414 -6.167,-3.356 -1.048,-0.489 -2.055,-1.035 -3.103,-1.463 -0.594,-0.237 -1.172,-0.468 -1.758,-0.701 l -0.169,0.228 c -10.889,-4.395 -24.034,-6.587 -39.756,-4.643 -6.36,0.786 -12.796,0.687 -19.137,-0.232 -12.758,-1.849 -32.136,-5.275 -35.867,-9.432 -3.346,-3.729 -11.214,-20.398 -23.503,-25.718 0.191,0.262 0.373,0.527 0.537,0.798 1.238,1.925 2.115,3.877 2.841,5.73 0.316,0.936 0.624,1.846 0.922,2.727 0.271,0.881 0.45,1.752 0.665,2.572 0.453,1.634 0.663,3.167 0.904,4.507 0.261,1.335 0.386,2.513 0.487,3.481 0.214,1.927 0.337,3.028 0.337,3.028 0,0 -0.346,-1.05 -0.949,-2.89 -0.294,-0.917 -0.653,-2.029 -1.173,-3.265 -0.503,-1.239 -1.006,-2.654 -1.756,-4.101 -0.364,-0.727 -0.698,-1.503 -1.118,-2.261 -0.437,-0.742 -0.889,-1.508 -1.355,-2.296 -0.992,-1.515 -2.111,-3.036 -3.426,-4.363 -0.631,-0.69 -1.399,-1.212 -2.083,-1.818 -0.382,-0.233 -0.765,-0.467 -1.151,-0.702 -0.193,-0.111 -0.371,-0.248 -0.57,-0.341 l -0.608,-0.246 c -1.577,-0.743 -3.262,-0.972 -4.939,-0.845 -1.676,0.12 -3.367,0.548 -5.014,1.308 -0.677,0.303 -1.339,0.652 -1.994,1.011 -3.845,2.356 -7.931,5.955 -12.261,11.123 -15.496,18.496 -15.906,35.719 -12.442,48.317 2.668,9.705 8.295,18.338 15.805,25.038 l 45.042,40.184 c 8.902,7.941 15.732,17.877 20.307,28.893 0.912,2.196 2.042,4.594 3.424,7.145 -14.884,-1.819 -29.733,-1.23 -29.733,-1.23 17.003,2.273 34.573,13.781 40.764,18.172 -12.445,-6.933 -43.865,2.4 -43.865,2.4 26.556,-2.896 53.137,9.687 67.845,18.346 3.583,2.556 7.458,5.102 11.67,7.619 0.739,7.044 7.459,60.141 42.967,69.356 0,0 -2.42,-37.312 3.52,-58.29 0.473,0.114 0.951,0.229 1.446,0.349 2.327,0.599 4.949,1.062 7.777,1.645 2.851,0.469 5.927,1.009 9.237,1.383 6.611,0.804 14.112,1.296 22.272,1.138 6.499,-0.134 13.425,-0.655 20.598,-1.746 l 0.024,0.01 0.027,-0.013 c 1.81,-0.276 3.632,-0.579 5.47,-0.931 2.281,-0.476 4.601,-0.89 6.914,-1.489 1.201,-0.292 2.409,-0.587 3.624,-0.883 1.096,-0.309 2.199,-0.62 3.306,-0.933 1.078,-0.29 2.275,-0.662 3.48,-1.043 1.188,-0.379 2.418,-0.742 3.584,-1.142 2.321,-0.806 4.671,-1.6 6.987,-2.502 9.323,-3.498 18.528,-7.784 27.63,-12.34 9.11,-4.553 18.113,-9.411 27.127,-14.056 l 6.779,-3.455 c 2.251,-1.107 4.481,-2.229 6.752,-3.296 4.52,-2.166 9.057,-4.215 13.612,-6.086 4.547,-1.896 9.113,-3.611 13.681,-5.1 4.562,-1.525 9.134,-2.787 13.677,-3.809 9.097,-2.076 18.036,-3.024 26.654,-2.824 8.387,0.243 16.495,1.801 23.596,4.085 7.134,2.297 13.36,5.404 18.445,8.817 5.1,3.405 9.025,7.11 11.999,10.384 1.41,1.702 2.75,3.177 3.68,4.633 0.98,1.418 1.87,2.597 2.42,3.661 1.19,2.075 1.82,3.182 1.82,3.182 0,0 -0.56,-1.151 -1.6,-3.308 -0.47,-1.11 -1.27,-2.351 -2.16,-3.851 -0.84,-1.539 -2.08,-3.118 -3.394,-4.95 -2.779,-3.532 -6.517,-7.606 -11.519,-11.482 -4.983,-3.882 -11.192,-7.559 -18.452,-10.479 -7.281,-2.908 -15.482,-5.135 -24.604,-6.048 -8.89,-0.84 -18.536,-0.517 -28.232,0.992 -4.859,0.737 -9.762,1.725 -14.645,2.98 -4.895,1.222 -9.786,2.674 -14.642,4.305 -4.868,1.609 -9.706,3.394 -14.504,5.289 -2.402,0.928 -4.802,1.927 -7.202,2.905 l -1.423,0.602 c 1.497,-0.734 2.989,-1.478 4.503,-2.227 5.386,-2.742 10.744,-5.695 16.09,-8.771 5.325,-3.104 10.627,-6.342 15.905,-9.666 10.541,-6.666 20.981,-13.667 31.435,-20.496 10.469,-6.836 20.941,-13.426 31.602,-19.352 10.633,-5.935 21.411,-11.155 32.18,-15.35 5.382,-2.091 10.772,-3.895 16.102,-5.467 5.35,-1.48 10.64,-2.844 15.85,-3.73 2.68,-0.539 5.21,-0.84 7.74,-1.188 2.53,-0.354 5.08,-0.49 7.56,-0.742 2.49,-0.094 4.94,-0.263 7.35,-0.279 1.2,0 2.4,0.01 3.58,0.011 0.59,0 1.18,0.01 1.77,0.01 0.58,0.03 1.16,0.06 1.74,0.09 9.27,0.388 17.73,1.75 25.01,3.742 7.29,2.005 13.43,4.549 18.17,7.234 1.23,0.604 2.26,1.379 3.31,1.999 1.01,0.667 2.03,1.206 2.84,1.887 0.84,0.643 1.62,1.238 2.34,1.784 0.72,0.545 1.38,1.029 1.9,1.551 2.15,1.997 3.3,3.063 3.3,3.063 0,0 -1.09,-1.132 -3.13,-3.254 -0.49,-0.555 -1.12,-1.079 -1.81,-1.667 -0.69,-0.59 -1.44,-1.235 -2.25,-1.931 -0.79,-0.738 -1.77,-1.336 -2.76,-2.069 -1.02,-0.687 -2.03,-1.535 -3.23,-2.216 -4.65,-2.998 -10.74,-5.945 -18.06,-8.421 -7.31,-2.462 -15.89,-4.358 -25.38,-5.304 -0.59,-0.065 -1.19,-0.13 -1.79,-0.195 -0.6,-0.038 -1.2,-0.075 -1.81,-0.113 -1.21,-0.074 -2.44,-0.149 -3.68,-0.224 -2.48,-0.126 -5.01,-0.101 -7.58,-0.15 -2.58,0.111 -5.19,0.101 -7.87,0.318 -2.67,0.21 -5.43,0.391 -8.07,0.768 -5.46,0.61 -10.98,1.695 -16.61,2.912 -5.61,1.305 -11.288,2.85 -16.979,4.691 -11.377,3.692 -22.81,8.44 -34.064,13.898 -11.255,5.431 -22.397,11.582 -33.305,17.84 -10.923,6.269 -21.703,12.629 -32.389,18.555 -3.452,1.905 -6.89,3.744 -10.321,5.547 2.561,-1.886 5.145,-3.895 7.705,-6.065 1.448,-1.192 2.856,-2.46 4.302,-3.731 1.369,-1.281 2.758,-2.582 4.168,-3.901 l 1.021,-0.962 1.071,-1.064 c 0.715,-0.716 1.436,-1.437 2.161,-2.161 0.718,-0.725 1.442,-1.454 2.17,-2.188 0.687,-0.733 1.38,-1.471 2.076,-2.212 2.807,-2.948 5.53,-6.048 8.268,-9.204 10.931,-12.656 21.241,-26.722 31.918,-40.192 5.34,-6.736 10.78,-13.324 16.419,-19.517 l 2.113,-2.317 0.265,-0.288 0.065,-0.073 c -0.115,0.106 0.008,-0.012 0,-0.01 l 0.14,-0.143 0.555,-0.571 1.109,-1.138 c 1.478,-1.504 2.95,-3.074 4.403,-4.41 2.862,-2.806 5.899,-5.478 8.916,-8.063 6.073,-5.119 12.377,-9.545 18.623,-13.3 3.1,-1.94 6.27,-3.508 9.32,-5.101 3.13,-1.401 6.14,-2.846 9.15,-3.885 2.97,-1.219 5.93,-1.978 8.72,-2.845 1.4,-0.398 2.8,-0.644 4.15,-0.963 1.35,-0.276 2.65,-0.653 3.95,-0.784 5.15,-0.83 9.72,-1.11 13.48,-1.067 1.89,0.062 3.58,0.118 5.04,0.166 1.46,0.18 2.7,0.333 3.71,0.457 2.01,0.253 3.09,0.389 3.09,0.389 0,0 -1.06,-0.234 -3.04,-0.672 -1,-0.217 -2.23,-0.485 -3.68,-0.801 -1.47,-0.185 -3.16,-0.397 -5.06,-0.635 -3.8,-0.395 -8.47,-0.542 -13.82,-0.177 -1.35,0.014 -2.71,0.272 -4.13,0.428 -1.41,0.199 -2.88,0.324 -4.36,0.599 -2.95,0.62 -6.1,1.134 -9.27,2.105 -3.23,0.795 -6.47,1.993 -9.87,3.158 -3.3,1.352 -6.78,2.692 -10.18,4.406 -6.865,3.308 -13.876,7.326 -20.716,12.089 -3.398,2.405 -6.82,4.894 -10.206,7.653 -1.755,1.351 -3.295,2.722 -4.919,4.095 l -1.209,1.032 -0.605,0.517 -0.371,0.328 -0.3,0.273 -2.408,2.196 c -6.435,5.876 -12.653,12.137 -18.704,18.474 -12.097,12.681 -23.582,25.633 -35.001,36.61 -2.858,2.737 -5.673,5.405 -8.509,7.876 -0.704,0.625 -1.404,1.246 -2.099,1.864 l -0.05,0.041 c 3.047,-8.903 6.091,-18.768 8.813,-29.577 3.371,-13.729 6.238,-28.991 7.219,-45.571 0.462,-8.288 0.473,-16.882 -0.189,-25.677 -0.684,-8.795 -2.128,-17.782 -4.393,-26.732 -2.269,-8.95 -5.4,-17.86 -9.429,-26.45 -4.081,-8.56 -9.039,-16.76 -14.695,-24.44 l -2.143,-2.86 -1.163,-1.54 -1.035,-1.27 -2.092,-2.56 -2.312,-2.72 c -3.066,-3.57 -6.12,-6.94 -9.295,-10.26 -6.308,-6.65 -12.85,-12.96 -19.461,-19.07 -13.23,-12.23 -26.752,-23.71 -39.741,-35.15 -12.987,-11.44 -25.495,-22.81 -36.637,-34.6 -11.163,-11.76 -20.937,-23.98 -28.373,-36.63 -7.394,-12.66 -12.384,-25.77 -14.437,-38.43 -1.063,-6.32 -1.466,-12.49 -1.37,-18.38 0.09,-5.89 0.755,-11.48 1.655,-16.69 1.809,-10.45 4.832,-19.32 7.67,-26.46 0.745,-1.77 1.384,-3.48 2.105,-5.04 0.709,-1.56 1.375,-3.03 1.995,-4.39 1.309,-2.69 2.449,-4.98 3.395,-6.82 1.974,-3.64 3.027,-5.59 3.027,-5.59 0,0 -1.205,1.86 -3.465,5.34 z m 744.798,757.22 v -10e-4 C 1527.33,923.15 855.484,892.66 855.484,892.66 c 216.636,86.91 385.996,243.58 494.006,366.077 -83.9,126.372 -227.48,209.687 -390.529,209.687 -258.703,0 -468.423,-209.721 -468.423,-468.424 0,-258.7 209.72,-468.42 468.423,-468.42 258.709,0 468.429,209.72 468.429,468.42 0,10.187 -0.33,20.298 -0.97,30.323 143.72,204.18 57.25,403.587 57.25,403.587"
           style="fill:#ffffff;fill-opacity:1;fill-rule:nonzero;stroke:none"
           id="path995" />
        <path
           d="m 558.728,1057.704 c -10.459,-0.51 -12.298,-13.851 -12.301,-13.865 1.26,9.152 16.591,0.341 18.558,8.854 0.908,3.93 -2.984,5.171 -6.257,5.011"
           style="fill:#ffffff;fill-opacity:1;fill-rule:nonzero;stroke:none"
           id="path997" />
        <path
           d="m 640.381,1145.185 0.201,-8.841 c 2.382,4.473 3.772,4.386 18.04,10.693 14.268,6.307 7.431,19.104 7.431,19.104 -7.838,-8.495 -26.069,-3.432 -25.672,-20.956"
           style="fill:#ffffff;fill-opacity:1;fill-rule:nonzero;stroke:none"
           id="path999" />
      </g>
    </g>
  </g>
</svg>
